HIERARCHY
ROOT Hips
{
  OFFSET -107.43 86.3176 -36.8218
  CHANNELS 6 Xposition Yposition Zposition Zrotation Xrotation Yrotation
  JOINT RightUpLeg
  {
    OFFSET -8.9458 -8.66707 0.101652
    CHANNELS 3 Zrotation Xrotation Yrotation
    JOINT RightLeg
    {
      OFFSET 0 -44.4227 1.3727
      CHANNELS 3 Zrotation Xrotation Yrotation
      JOINT RightFoot
      {
        OFFSET 0.253549 -42.0924 -1.46059
        CHANNELS 3 Zrotation Xrotation Yrotation
        JOINT RightToes
        {
          OFFSET 0.04 -4.41509 8.4991
          CHANNELS 3 Zrotation Xrotation Yrotation
          End Site
          {
            OFFSET -0.08 -0.137448 9.77979
          }
        }
      }
    }
  }
  JOINT Spine
  {
    OFFSET 0 11.8905 0
    CHANNELS 3 Zrotation Xrotation Yrotation
    JOINT Spine1
    {
      OFFSET 0 25.6574 0.127663
      CHANNELS 3 Zrotation Xrotation Yrotation
      JOINT HEad
      {
        OFFSET 0 8.73416 0.011341
        CHANNELS 3 Zrotation Xrotation Yrotation
        End Site
        {
          OFFSET -0.29 12.7742 2.51395
        }
      }
      JOINT LeftShoulder1
      {
        OFFSET 8.99 -0.362252 -0.22
        CHANNELS 3 Zrotation Xrotation Yrotation
        JOINT LeftArm
        {
          OFFSET 10.2827 -0.00338 0.322123
          CHANNELS 3 Zrotation Xrotation Yrotation
          JOINT LeftForeArm
          {
            OFFSET 32.7669 0.099144 -1.42434
            CHANNELS 3 Zrotation Xrotation Yrotation
            JOINT LeftHand
            {
              OFFSET 27.5643 0.085362 1.02216
              CHANNELS 3 Zrotation Xrotation Yrotation
              End Site
              {
                OFFSET 16.7443 -0.6 1.50291
              }
            }
          }
        }
      }
      JOINT RightShoulder
      {
        OFFSET -8.99 -0.362252 -0.22
        CHANNELS 3 Zrotation Xrotation Yrotation
        JOINT RightArm
        {
          OFFSET -10.2827 -0.00338 0.322123
          CHANNELS 3 Zrotation Xrotation Yrotation
          JOINT RightForeArm
          {
            OFFSET -32.8971 0.099144 -1.42434
            CHANNELS 3 Zrotation Xrotation Yrotation
            JOINT RightHand
            {
              OFFSET -27.4921 0.085362 1.02216
              CHANNELS 3 Zrotation Xrotation Yrotation
              End Site
              {
                OFFSET -16.6312 -0.6 1.50291
              }
            }
          }
        }
      }
    }
  }
  JOINT LeftUpLeg
  {
    OFFSET 8.9458 -8.66707 0.101652
    CHANNELS 3 Zrotation Xrotation Yrotation
    JOINT LeftLeg
    {
      OFFSET 0 -44.4227 1.3727
      CHANNELS 3 Zrotation Xrotation Yrotation
      JOINT LeftFoot
      {
        OFFSET -0.253549 -42.0924 -1.46059
        CHANNELS 3 Zrotation Xrotation Yrotation
        JOINT LeftToes
        {
          OFFSET -0.04 -4.41509 8.4991
          CHANNELS 3 Zrotation Xrotation Yrotation
          End Site
          {
            OFFSET 0.08 -0.047448 9.77979
          }
        }
      }
    }
  }
}
MOTION
Frames:	12
Frame Time:	0.0166667
-44.5285 87.8882 -34.5156 1.89026 -2.32992 178.747 -17.7953 -31.4982 10.8309 -0.987102 14.0958 1.82451 30.4697 32.2516 -10.7616 -32.807 -31.4047 5.65444 0.848781 6.35685 -15.2073 3.83521 12.4366 -29.8862 -1.88413 -14.3901 44.4549 1.59028e-015 0 -3.18055e-015 20.5506 -20.518 -75.5577 9.40337 25.8456 -1.44285 -31.4084 0.935035 34.7878 22.1758 -0.565521 -4.71162 61.4116 -9.52407 56.8779 -6.56681 22.7166 135.854 34.906 6.03236 -16.4261 25.1647 14.6536 -6.87501 -13.6376 25.428 12.6259 1.94419 25.1994 -0.72398 49.6467 -45.6438 28.2962 
-44.9639 87.6588 -34.6427 1.36646 -2.47011 178.093 -18.7487 -32.247 12.6928 0.88323 14.9528 -0.339095 26.4108 31.421 -9.07374 -31.6097 -29.7633 4.65152 0.253484 6.35519 -14.5266 2.37564 12.578 -28.5053 -1.99829 -15.0149 42.9699 1.76556e-031 -3.18055e-015 3.18055e-015 15.5995 -20.1585 -77.7303 16.8284 30.578 -10.2413 -30.7677 0.839917 35.7209 20.9019 -0.536637 -4.73492 65.2087 -9.81485 57.2603 -6.22273 22.8995 138.817 33.2951 6.22446 -16.4087 25.2864 14.8732 -7.94383 -12.9177 25.0296 13.7804 5.5825 24.9697 -1.75386 51.807 -47.3869 28.501 
-45.3528 87.2228 -34.7255 0.877866 -2.14309 177.484 -19.5956 -32.9345 13.323 2.15527 16.1856 -1.42415 24.5634 31.7432 -8.48561 -32.5968 -30.1827 3.62253 -0.359269 6.42572 -13.1973 0.89872 12.871 -25.7909 -2.36942 -14.6499 40.142 3.18055e-015 1.59028e-015 3.18055e-015 5.67559 -19.6367 -79.8734 27.1171 31.1683 -25.6529 -24.9857 2.89745 34.4314 19.1373 -0.426933 -4.44401 68.7692 -11.733 57.0946 -6.1394 22.6588 141.94 32.7534 6.15247 -16.8522 26.0263 15.1713 -10.6607 -13.2215 24.3943 20.7665 10.3307 24.1705 -3.03212 54.4109 -48.2261 30.6175 
-45.6909 86.634 -34.7769 0.537455 -1.39286 177.351 -20.4917 -33.4599 12.8807 3.07028 17.9999 -2.05732 24.4551 32.9161 -8.70108 -35.3266 -32.1831 2.59999 -0.818086 6.67177 -11.5467 -0.411653 13.4296 -22.5264 -2.56694 -13.601 36.8073 6.36111e-015 6.36111e-015 -1.27222e-014 -8.7703 -19.2274 -81.9355 34.9248 28.8736 -44.9108 -18.9884 5.07248 31.758 17.6255 -0.342074 -4.20198 71.157 -14.3497 56.8818 -6.11135 22.2512 144.341 31.8586 6.30232 -16.7044 27.5465 15.0228 -14.3589 -14.4953 24.1356 30.9764 14.5044 21.4287 -3.83422 53.2317 -47.0429 30.9022 
-46.0176 85.9427 -34.7828 0.365764 -0.419221 177.99 -21.772 -33.7794 11.8643 4.23336 20.2946 -3.06758 24.9754 34.2171 -9.18278 -38.5662 -34.5794 1.57304 -1.04268 7.10481 -9.98508 -1.43279 14.2662 -19.4925 -2.44904 -12.7169 33.4981 0 0 -3.18055e-015 -27.4428 -19.6656 -83.3989 39.5732 28.5475 -68.1363 -16.4276 5.85096 30.8871 16.8282 -0.338115 -4.27171 72.1868 -16.8206 56.995 -5.9792 22.1977 145.493 29.9051 6.86021 -15.5043 29.6561 13.9474 -17.7922 -16.3991 24.614 40.425 16.5653 16.8363 -3.66848 46.2199 -43.4871 26.9237 
-46.365 85.1099 -34.759 0.344323 0.542012 179.444 -23.5377 -33.985 10.5728 5.90487 23.0059 -4.75482 25.3971 35.1562 -9.55753 -41.6011 -36.7207 0.544362 -1.00251 7.68115 -8.75812 -2.14518 15.3147 -17.1027 -2.07889 -12.6997 30.175 3.18055e-015 0 -0 -49.0461 -22.3137 -83.8845 42.7288 31.4867 -95.116 -16.0766 5.59742 33.0522 16.6196 -0.402664 -4.6344 72.5546 -18.9723 57.5186 -5.68727 22.8285 145.501 27.1953 7.63699 -13.5124 32.0717 11.8057 -19.8364 -18.4415 25.8016 46.256 16.1941 11.8519 -2.85245 36.4412 -37.8876 20.8594 
-46.7266 84.0627 -34.7501 0.442969 1.37843 -178.393 -25.5926 -34.0678 9.01807 7.72503 26.0259 -6.873 25.7782 35.8329 -9.86353 -44.8685 -38.8449 -0.743736 -0.798992 8.31813 -7.8628 -2.62121 16.4728 -15.2788 -1.43127 -13.6923 26.4704 -1.59028e-015 0 -3.18055e-015 -62.6085 -25.3299 -80.3898 43.096 29.2059 -115.344 -17.2624 4.7764 36.0665 16.6708 -0.503218 -5.15297 72.9297 -21.1517 58.1831 -5.27963 23.9205 144.88 24.3332 8.37327 -11.2719 34.5889 8.80194 -20.0509 -20.1749 27.4628 47.6193 14.2447 8.13457 -2.03265 28.5994 -32.211 16.3358 
-47.1379 82.8174 -34.7422 0.670882 2.11223 -175.742 -27.6023 -33.7675 7.34316 9.14455 28.8075 -9.14752 26.387 36.8555 -10.3499 -49.2994 -41.3261 -2.9101 -0.476815 8.97194 -7.0758 -2.9691 17.6682 -13.6582 -0.390277 -15.3871 22.0075 -0 -3.18055e-015 -0 -64.6797 -26.2495 -72.0227 39.8181 19.7521 -124.674 -19.1915 3.84101 38.0154 16.8448 -0.615798 -5.70888 73.3879 -23.8615 58.5103 -4.89452 24.9308 144.151 21.5 8.99296 -9.00158 37.0321 5.25976 -18.7519 -21.4671 29.354 45.4431 12.2204 6.92377 -1.61473 25.0738 -29.1894 14.6091 
-47.5989 81.45 -34.7469 1.00851 2.89621 -172.71 -29.2841 -32.8775 6.01217 10.0463 31.1787 -11.6703 27.038 38.3589 -10.9856 -55.1401 -43.8686 -6.46302 -0.0647657 9.61367 -6.24792 -3.29577 18.8544 -11.9017 1.03526 -17.3204 16.4934 7.95139e-016 3.18055e-015 1.59028e-015 -64.5451 -26.5931 -63.6219 35.4828 11.8773 -130.892 -19.5844 3.63321 38.4488 17.3211 -0.736733 -6.23599 73.4928 -27.4823 58.1017 -4.67733 25.4592 143.512 18.3351 9.56402 -6.35409 39.2962 1.54624 -16.7327 -22.4857 31.3104 41.6792 11.4831 8.55882 -1.69286 25.7225 -29.699 15.0783 
-48.1478 80.0799 -34.7577 1.38321 3.87801 -169.37 -30.5744 -31.2886 5.46644 10.8017 33.0859 -14.6273 27.2253 39.9347 -11.4579 -61.2216 -45.5954 -10.9796 0.344619 10.2158 -5.31557 -3.67221 19.9918 -9.89751 2.64761 -19.0637 9.84527 7.95139e-016 3.18055e-015 1.59028e-015 -63.2704 -25.8252 -56.7088 30.841 6.90972 -134.803 -18.1913 4.24369 37.5157 18.4525 -0.885113 -6.73042 72.7831 -32.1035 56.8692 -4.64663 25.6027 142.809 14.4162 10.0925 -2.85491 41.2044 -2.04895 -14.7453 -23.328 33.5168 38.4216 12.2688 12.082 -2.20177 29.2806 -32.5882 17.0749 
-48.8659 78.8474 -34.7715 1.73272 5.06707 -165.772 -31.5487 -28.9896 5.73848 11.8079 34.4664 -17.8671 26.5359 40.8874 -11.3882 -65.3858 -45.9134 -14.931 0.682105 10.7636 -4.35361 -4.04296 21.0608 -7.80961 4.16365 -20.3261 2.40279 1.98785e-016 3.18055e-015 1.19271e-015 -61.9242 -23.9769 -52.4768 26.6073 4.91012 -137.277 -15.6875 5.27769 35.7837 20.3901 -1.09426 -7.27014 71.2558 -37.3071 55.1357 -4.68879 25.8299 141.801 9.89411 10.4212 1.36325 42.5628 -5.30224 -13.257 -23.6761 36.1315 36.5237 13.6463 15.7216 -2.89621 34.2426 -36.0782 20.2211 
-49.8437 77.8956 -34.7965 2.05976 6.32352 -162.025 -32.2447 -26.0451 6.47345 13.0413 35.1409 -20.7894 24.9226 40.6707 -10.6189 -65.9305 -44.8996 -16.7973 0.941616 11.2431 -3.51867 -4.23115 22.0442 -5.97168 5.36159 -20.9708 -5.13275 -7.95139e-016 0 -1.59028e-015 -61.0612 -21.1355 -51.1942 23.4057 4.55163 -138.931 -13.2201 6.21242 34.03 22.8805 -1.40007 -7.99418 69.2946 -42.0684 53.4275 -4.69957 26.37 140.419 5.53081 10.4246 5.39125 43.2724 -7.97651 -12.5211 -23.0873 38.7432 35.3618 14.6616 18.2762 -3.44908 39.3681 -38.9023 24.1387 
